<?xml version="1.0" encoding="UTF-8"?><svg id="Layer_2" xmlns="http://www.w3.org/2000/svg" viewBox="0 0 1067.62 624.2"><defs><style>.cls-1,.cls-2,.cls-3{fill:#fff;}.cls-4,.cls-5{fill:#2f88ff;}.cls-6{font-size:209.47px;}.cls-2,.cls-5,.cls-7{stroke:#fff;stroke-miterlimit:10;}.cls-2,.cls-7{stroke-width:2px;}.cls-8{letter-spacing:0em;}.cls-8,.cls-9,.cls-10{font-size:252.92px;}.cls-5{stroke-width:15px;}.cls-3{font-family:SwingKing-Regular, 'Swing King';}.cls-10{letter-spacing:0em;}</style></defs><g id="Layer_1-2"><text/><g><text class="cls-3" transform="translate(275.2 359.04) scale(1.02 1)"><tspan class="cls-8" x="0" y="0">n</tspan><tspan class="cls-9" x="116.34" y="0">a</tspan><tspan class="cls-6" x="260.5" y="0">l</tspan><tspan class="cls-10" x="301.98" y="0" xml:space="preserve"> sac</tspan></text><path class="cls-5" d="M573.06,227.8c-16.03,11.49-16.72,32.64-1.54,47.24,15.18,14.6,40.47,17.12,56.5,5.64,16.03-11.49,16.72-32.64,1.54-47.24-15.17-14.6-40.47-17.12-56.5-5.64Z"/></g><g><line class="cls-2" x1="212.56" y1="233.67" x2="172.69" y2="273.17"/><line class="cls-2" x1="213.52" y1="336.9" x2="171.74" y2="299.43"/><line class="cls-2" x1="226.48" y1="287.62" x2="170.36" y2="287.62"/><line class="cls-2" x1="69.62" y1="339.31" x2="109.49" y2="299.81"/><line class="cls-2" x1="63.41" y1="229.53" x2="111.36" y2="272.54"/><line class="cls-7" x1="54.87" y1="289.82" x2="111" y2="289.82"/><line class="cls-2" x1="141.46" y1="359.84" x2="141.46" y2="303.71"/><path class="cls-4" d="M173.11,268.1c-2.78-.47-5.61-.7-8.43-.68-1.62,0-3.21,0-4.8,.29-1.97-2.45-4.5-4.48-7.39-5.94,2.49-2.53,3.87-5.83,3.87-9.25,0-7.67-6.69-13.89-14.94-13.89-8.24,0-14.93,6.22-14.93,13.89,0,3.43,1.38,6.73,3.87,9.25-2.88,1.47-5.39,3.48-7.39,5.9-1.51-.25-3.1-.25-4.72-.25-2.83,.01-5.65,.26-8.43,.76-1.86,.32-3.2,1.84-3.17,3.6v29.7c0,1.07,.51,2.09,1.39,2.77,.88,.69,2.04,.98,3.17,.79,2.32-.47,4.67-.73,7.04-.79,7.49,0,14.83,2.03,21.09,5.87l.5,.18c.51,.21,1.07,.32,1.62,.32,.37,0,.74-.07,1.08-.18h.27l.5-.18c6.32-3.93,13.75-6.03,21.36-6.01,2.36,.01,4.72,.23,7.04,.65,1.13,.19,2.29-.1,3.17-.79,.88-.69,1.39-1.7,1.39-2.77v-29.7c0-1.73-1.34-3.22-3.17-3.53Zm-31.65-22.28c3.96,.27,6.94,3.48,6.65,7.17-.26,3.31-3.09,5.94-6.65,6.19-3.96-.27-6.94-3.48-6.65-7.17,.26-3.31,3.09-5.94,6.65-6.19Zm-3.87,55.19c-6.06-2.61-12.66-3.96-19.34-3.96-1.28,0-2.55,0-3.87,.18v-22.61c3.24-.34,6.52-.28,9.75,.18h.43c4.61,.79,9.03,2.35,13.04,4.61v21.6Zm3.87-27.83c-1.72-.92-3.5-1.74-5.34-2.45h-.23c-1.28-.47-2.55-.94-3.87-1.3,2.69-1.99,6.01-3.09,9.44-3.13,3.42,.02,6.74,1.1,9.44,3.06-3.28,.95-6.45,2.23-9.44,3.82Zm27.08,24.05c-7.94-.74-15.96,.5-23.21,3.6v-21.6c4.02-2.2,8.44-3.69,13.04-4.39h.77c3.11-.45,6.27-.52,9.4-.22v22.61Z"/><circle class="cls-2" cx="52.26" cy="289.82" r="10.08"/><circle class="cls-2" cx="64.95" cy="341.86" r="10.08"/><circle class="cls-1" cx="141.46" cy="362.01" r="10.08"/><circle class="cls-2" cx="217.23" cy="341.86" r="10.08"/><circle class="cls-2" cx="232.25" cy="287.62" r="10.08"/><circle class="cls-2" cx="217.23" cy="227.68" r="10.08"/><circle class="cls-2" cx="59.19" cy="225.74" r="10.08"/></g></g></svg>